<svg xmlns="http://www.w3.org/2000/svg" viewBox="0 0 820 300" width="820" height="300">
  <defs>
    <linearGradient id="bg" x1="0" y1="0" x2="1" y2="1">
      <stop offset="0" stop-color="#0b1020"/>
      <stop offset="1" stop-color="#111827"/>
    </linearGradient>
    <linearGradient id="line" x1="0" y1="0" x2="1" y2="0">
      <stop offset="0" stop-color="#22d3ee"/>
      <stop offset="1" stop-color="#a855f7"/>
    </linearGradient>
    <filter id="glow">
      <feGaussianBlur stdDeviation="3" result="blur"/>
      <feMerge><feMergeNode in="blur"/><feMergeNode in="SourceGraphic"/></feMerge>
    </filter>
  </defs>
  <rect x="10" y="10" width="800" height="280" rx="28" fill="url(#bg)" stroke="#1e293b" stroke-width="2"/>
  <circle cx="95" cy="85" r="38" fill="#06b6d4" opacity="0.18"/>
  <circle cx="710" cy="218" r="58" fill="#7c3aed" opacity="0.20"/>
  <text x="410" y="52" font-family="JetBrains Mono, Segoe UI, Arial" font-size="30" font-weight="800" fill="#e5f6ff" text-anchor="middle">WalrOS Labs</text>
  <g transform="translate(240,82)">
    <rect x="0" y="0" width="155" height="96" rx="10" fill="#111827" stroke="#475569" stroke-width="4"/>
    <rect x="22" y="22" width="84" height="7" rx="3.5" fill="#22d3ee" filter="url(#glow)"/>
    <rect x="22" y="44" width="115" height="7" rx="3.5" fill="#60a5fa" filter="url(#glow)"/>
    <rect x="22" y="66" width="62" height="7" rx="3.5" fill="#a855f7" filter="url(#glow)"/>
  </g>
  <g transform="translate(420,58)">
    <rect x="0" y="0" width="185" height="128" rx="10" fill="#111827" stroke="#475569" stroke-width="4"/>
    <rect x="25" y="26" width="72" height="8" rx="4" fill="#22d3ee" filter="url(#glow)"/>
    <rect x="25" y="52" width="132" height="8" rx="4" fill="#38bdf8" filter="url(#glow)"/>
    <rect x="25" y="78" width="94" height="8" rx="4" fill="#818cf8" filter="url(#glow)"/>
    <rect x="137" y="26" width="28" height="8" rx="4" fill="#a855f7" filter="url(#glow)"/>
    <rect x="76" y="128" width="34" height="38" fill="#334155"/>
    <rect x="45" y="164" width="96" height="14" rx="7" fill="#334155"/>
  </g>
  <g transform="translate(632,108)">
    <rect x="0" y="0" width="95" height="86" rx="10" fill="#111827" stroke="#475569" stroke-width="4"/>
    <rect x="22" y="25" width="48" height="7" rx="3.5" fill="#22d3ee" filter="url(#glow)"/>
    <rect x="22" y="50" width="34" height="7" rx="3.5" fill="#a855f7" filter="url(#glow)"/>
  </g>
  <path d="M175 215 H690 L640 265 H225 Z" fill="#1f2937"/>
  <path d="M245 235 H620" stroke="url(#line)" stroke-width="3" opacity="0.7"/>
  <circle cx="300" cy="210" r="24" fill="#0ea5e9"/>
  <path d="M290 210 l8 9 l17 -21" fill="none" stroke="#ecfeff" stroke-width="6" stroke-linecap="round" stroke-linejoin="round"/>
  <text x="410" y="268" font-family="JetBrains Mono, Segoe UI, Arial" font-size="15" fill="#93c5fd" text-anchor="middle">Sysadmin · Security · Homelab</text>
</svg>
